<?xml version="1.0" encoding="UTF-8" standalone="no"?>
<svg
   xmlns:dc="http://purl.org/dc/elements/1.1/"
   xmlns:cc="http://creativecommons.org/ns#"
   xmlns:rdf="http://www.w3.org/1999/02/22-rdf-syntax-ns#"
   xmlns:svg="http://www.w3.org/2000/svg"
   xmlns="http://www.w3.org/2000/svg"
   xmlns:xlink="http://www.w3.org/1999/xlink"
   xmlns:sodipodi="http://sodipodi.sourceforge.net/DTD/sodipodi-0.dtd"
   xmlns:inkscape="http://www.inkscape.org/namespaces/inkscape"
   width="406.03021"
   height="335.13895"
   id="svg2"
   sodipodi:version="0.32"
   inkscape:version="1.0 (4035a4f, 2020-05-01)"
   version="1.0"
   sodipodi:docname="dCache-logo.svg"
   inkscape:output_extension="org.inkscape.output.svg.inkscape">
  <defs
     id="defs4">
    <linearGradient
       id="linearGradient3606">
      <stop
         style="stop-color:#7d86e7;stop-opacity:1;"
         offset="0"
         id="stop3616" />
      <stop
         style="stop-color:#0011b7;stop-opacity:1;"
         offset="1"
         id="stop3612" />
    </linearGradient>
    <inkscape:perspective
       sodipodi:type="inkscape:persp3d"
       inkscape:vp_x="0 : 67.087964 : 1"
       inkscape:vp_y="0 : 1000 : 0"
       inkscape:vp_z="405.92639 : 67.087964 : 1"
       inkscape:persp3d-origin="202.9632 : 11.445724 : 1"
       id="perspective8" />
    <radialGradient
       inkscape:collect="always"
       xlink:href="#linearGradient3606"
       id="radialGradient3614"
       cx="43.432018"
       cy="73.350136"
       fx="43.432018"
       fy="73.350136"
       r="203.01512"
       gradientTransform="matrix(1.1680792,1.5692193,-1.0285861,0.76564823,145.7361,-70.81653)"
       gradientUnits="userSpaceOnUse" />
    <radialGradient
       inkscape:collect="always"
       xlink:href="#linearGradient3606"
       id="radialGradient2894"
       gradientUnits="userSpaceOnUse"
       gradientTransform="matrix(1.1680792,1.5692193,-1.0285861,0.76564823,-547.57607,-537.62595)"
       cx="43.432018"
       cy="73.350136"
       fx="43.432018"
       fy="73.350136"
       r="203.01512" />
    <radialGradient
       inkscape:collect="always"
       xlink:href="#linearGradient3606"
       id="radialGradient2902"
       gradientUnits="userSpaceOnUse"
       gradientTransform="matrix(1.1680792,1.5692193,-1.0285861,0.76564823,-274.34558,-831.62451)"
       cx="43.432018"
       cy="73.350136"
       fx="43.432018"
       fy="73.350136"
       r="203.01512" />
  </defs>
  <sodipodi:namedview
     id="base"
     pagecolor="#ffffff"
     bordercolor="#666666"
     borderopacity="1.0"
     gridtolerance="10000"
     guidetolerance="10"
     objecttolerance="10"
     inkscape:pageopacity="0.0"
     inkscape:pageshadow="2"
     inkscape:zoom="0.35"
     inkscape:cx="-401.00765"
     inkscape:cy="536.65531"
     inkscape:document-units="px"
     inkscape:current-layer="layer1"
     inkscape:window-width="1209"
     inkscape:window-height="982"
     inkscape:window-x="507"
     inkscape:window-y="23"
     showguides="true"
     inkscape:guide-bbox="true"
     showgrid="false"
     inkscape:window-maximized="0"
     inkscape:document-rotation="0" />
  <metadata
     id="metadata7">
    <rdf:RDF>
      <cc:Work
         rdf:about="">
        <dc:format>image/svg+xml</dc:format>
        <dc:type
           rdf:resource="http://purl.org/dc/dcmitype/StillImage" />
        <dc:title />
      </cc:Work>
    </rdf:RDF>
  </metadata>
  <g
     style="display:inline"
     inkscape:label="Layer 1"
     inkscape:groupmode="layer"
     id="layer1"
     transform="translate(-34.725724,-35.072953)">
    <g
       id="g2917"
       transform="matrix(-1,0,0,1,32.624523,772.57143)">
      <path
         style="fill:#4c4e50;fill-opacity:1"
         d="m -369.56122,-405.47354 c -3.67404,-10.79744 22.37984,-18.35492 38.83192,-18.71658 21.43796,-0.47127 40.80587,1.50907 67.72116,-0.50236 -5.24667,-16.51223 0.36221,-38.42402 5.16752,-51.74522 0.7214,-28.74104 -2.62208,-55.30636 -6.08197,-74.32141 -0.94861,-5.21343 7.18336,-4.2225 17.0241,3.95334 9.84073,8.17584 21.39022,23.53659 27.27665,34.94096 8.56194,13.23539 34.72512,59.09205 3.41763,59.08668 -7.1729,-0.001 -5.85883,-5.96558 -11.9548,-7.89417 -6.60104,1.53515 -18.896,17.47116 -16.78031,36.26882 8.88563,0.84643 18.00351,-0.78367 27.83072,-0.17418 11.44096,-13.15369 17.63688,-23.24863 20.15608,-38.32794 0.73077,-17.29925 -3.47166,-29.65011 -15.40343,-48.6409 -11.93177,-18.99079 -35.96641,-43.36522 -62.92647,-55.87745 -17.34408,-8.04942 -33.15852,-23.20417 -42.41273,-39.58394 -11.93659,-21.12751 6.2127,-54.44593 -5.1032,-64.96434 -17.40481,-1.71811 -49.22055,0.28926 -50.07935,0.45609 -32.8614,6.38397 -21.86464,15.81181 -30.62423,17.44462 -5.52338,1.02957 -6.47021,-11.11169 -0.84115,-17.41808 6.60381,-7.39842 21.70186,-14.07262 32.91674,-18.69676 6.93665,-2.86012 23.88093,-9.35106 31.35507,-12.28323 11.27291,-4.42245 11.49787,-8.8319 14.70371,-13.50035 2.00896,-2.92553 34.9593,-17.11132 46.50617,-18.76402 7.55641,-1.08154 43.47993,-9.87219 61.50811,10.9026 14.60649,16.83179 9.74745,37.3151 4.05729,55.17407 27.48517,-0.92295 65.14162,25.3959 88.24643,47.92928 41.577969,38.3861 69.191859,88.50519 96.485259,137.34013 6.4337,12.68245 19.1167998,23.19029 26.4630998,35.38912 -2.5007,2.51453 -9.7357998,1.61226 -14.1341998,-3.25976 -3.4067,-3.77347 -8.2721,-6.23893 -9.5856,-7.42155 -2.6142,-2.35392 -21.0365,-16.90269 -30.1383,-21.93688 -30.12514,-20.52338 -63.313329,-35.86034 -97.151719,-49.0762 -27.26355,-14.71653 -81.32959,-41.61159 -95.01378,-63.48179 -5.09108,-8.13663 -0.27118,-25.69884 -3.20895,-31.08151 -2.7592,12.2959 -5.32863,31.84635 2.14524,40.5126 15.61361,18.1046 78.70199,49.8646 107.19106,63.12357 28.78229,13.39544 76.672759,42.7373 99.817049,70.49431 2.7982,3.35595 11.2609,30.64514 -3.2484,32.70629 -17.24967,2.45045 -43.03203,3.17666 -59.401399,-18.10347 -9.28194,-12.0665 -21.86549,-34.89783 -32.22789,-39.08475 1.38716,10.59988 -5.35122,22.97642 -10.76906,22.86567 -6.4081,-0.12582 -13.02495,-11.04554 -21.01867,-15.00992 -11.48725,-5.69695 -9.53598,28.81107 -18.96961,42.12194 12.36241,-0.35398 33.84149,2.03484 47.06057,2.47818 13.81943,0.46347 33.51153,19.97888 8.13468,16.29472 -16.39745,-2.38055 -45.0732,-8.43877 -49.46962,-7.88543 -18.36973,0.26926 -50.16276,-0.35319 -59.06907,0.0971 6.2568,1.41509 6.41864,6.25394 2.52939,7.35328 -3.65483,1.03308 -14.93563,-4.18671 -19.34669,-7.42173 -3.77973,-0.14142 -56.46693,-1.07477 -71.33614,4.86066 -14.8692,5.93543 -38.22234,9.33566 -40.24891,3.3799 z"
         id="path2900"
         sodipodi:nodetypes="csccsscscccczsscssssssssccccssccscszssscsscsscczczs" />
    </g>
    <path
       transform="translate(34.725724,35.072953)"
       id="path847"
       d="m 334.70664,329.13671 c -7.07143,-2.35357 -27.70732,-5.00489 -45.85752,-5.89183 -27.84428,-1.36068 -34.4939,-0.84031 -42.55934,3.33049 -8.50002,4.39554 -9.3645,4.43637 -7.80358,0.36868 1.54728,-4.03214 -2.16535,-4.57445 -31.31686,-4.57445 -18.28018,0 -44.47981,2.08705 -58.57742,4.66622 -26.62618,4.87132 -32.36573,4.01829 -24.6795,-3.66794 3.08278,-3.08277 13.76808,-5.50891 32.68708,-7.42171 15.45892,-1.563 28.33992,-3.0256 28.62443,-3.25029 0.84971,-0.671 -9.98609,-38.58388 -11.92356,-41.71876 -2.77681,-4.49298 -5.536,-3.5635 -17.39269,5.85901 -10.25782,8.15189 -11.26469,8.40841 -14.67859,3.73963 -2.01592,-2.75694 -3.66531,-7.98117 -3.66531,-11.60939 0,-11.88527 -7.82414,-7.04595 -24.79666,15.33703 -9.14755,12.0636 -20.071853,24.4574 -24.276221,27.54182 -8.196015,6.01275 -31.687015,9.53018 -43.629323,6.53286 -6.37024,-1.59883 -7.297797,-3.35026 -7.297797,-13.77988 0,-10.78886 1.594422,-13.49878 16.431734,-27.92762 23.271866,-22.6312 45.779368,-37.12592 106.300957,-68.45726 55.97661,-28.97846 84.36618,-46.31395 88.47971,-54.02827 2.83451,-5.31571 3.84692,-14.17847 3.38957,-29.6726 -0.48463,-16.41857 -6.03054,-12.73054 -6.03054,4.01032 0,13.65017 -0.88605,15.54709 -12.14286,25.99642 -16.74501,15.54386 -58.76929,39.82187 -105.3777,60.87818 -43.626703,19.70926 -75.080771,37.87589 -101.703823,58.74011 -9.787695,7.67052 -19.1448541,13.9464 -20.7936867,13.9464 -1.6488326,0 3.1449957,-8.24762 10.6529517,-18.32804 7.507956,-10.08042 23.648792,-35.52896 35.868527,-56.55231 26.787002,-46.08549 55.157821,-82.08482 82.902381,-105.19364 23.18767,-19.313329 55.81677,-37.068866 68.12094,-37.068866 9.1883,0 9.45857,-0.993368 5.04212,-18.532665 -3.96746,-15.756218 -0.11774,-28.703164 11.97764,-40.281776 8.34484,-7.9883273 9.77136,-8.323241 34.93395,-8.2016907 22.04847,0.1065057 29.2827,1.3973046 45.34399,8.0906837 10.51057,4.380177 21.0698,10.954775 23.46491,14.610219 2.7968,4.268449 13.91326,10.349855 31.07177,16.998241 34.58392,13.400163 47.78174,22.27286 47.78174,32.122914 v 7.45706 l -6.83248,-7.372371 c -8.08666,-8.72566 -20.39523,-11.490115 -52.55249,-11.803092 -18.11314,-0.176286 -24.30885,0.77584 -26.38885,4.055334 -1.53149,2.414678 -1.94349,13.820803 -0.94375,26.126366 0.97597,12.012363 0.90572,25.302003 -0.156,29.532543 -2.97705,11.86151 -26.4684,34.97319 -47.24333,46.47977 -24.51541,13.5783 -56.83848,45.89814 -67.14934,67.14262 -10.64443,21.93176 -9.71026,45.99435 2.49591,64.29013 7.8532,11.77114 8.57063,12.14286 23.43581,12.14286 h 15.33452 l -0.0106,-9.28572 c -0.0128,-11.00734 -9.50938,-27.85714 -15.70048,-27.85714 -2.40157,0 -6.92491,1.59776 -10.05187,3.55059 -7.38707,4.6133 -15.34381,-0.0474 -16.51227,-9.67209 -1.34427,-11.07288 21.30257,-52.99569 37.86682,-70.09734 18.88525,-19.49794 21.86045,-19.53031 19.27376,-0.20974 -2.36991,17.7014 -1.95927,60.30162 0.88132,91.42858 l 2.02072,22.14286 34.68772,0.07 c 19.07823,0.0383 40.45443,1.39854 47.50265,3.02254 12.38269,2.85309 22.89935,9.5092 22.89935,14.49329 0,3.7306 -17.15292,2.50417 -31.42857,-2.24715 z"
       style="fill:#eaeaea;stroke-width:1;fill-opacity:1" />
  </g>
</svg>
